<svg xmlns="http://www.w3.org/2000/svg" xmlns:xlink="http://www.w3.org/1999/xlink" width="500" zoomAndPan="magnify" viewBox="0 0 375 374.999991" height="500" preserveAspectRatio="xMidYMid meet" version="1.0"><defs><g/><clipPath id="5b3f505451"><rect x="0" width="192" y="0" height="165"/></clipPath><clipPath id="9dfaee23c5"><path d="M 65.058594 178.648438 L 312.671875 178.648438 L 312.671875 219.949219 L 65.058594 219.949219 Z M 65.058594 178.648438 " clip-rule="nonzero"/></clipPath><clipPath id="4e122790f1"><path d="M 0.0585938 0.648438 L 247.671875 0.648438 L 247.671875 41.949219 L 0.0585938 41.949219 Z M 0.0585938 0.648438 " clip-rule="nonzero"/></clipPath><clipPath id="fbd1b811b5"><rect x="0" width="248" y="0" height="42"/></clipPath><clipPath id="b6443e8dc2"><rect x="0" width="168" y="0" height="22"/></clipPath></defs><g transform="matrix(1, 0, 0, 1, 86, 132)"><g clip-path="url(#5b3f505451)"><g fill="#000000" fill-opacity="1"><g transform="translate(1.142945, 125.477045)"><g><path d="M 2.46875 -120.125 L 48.78125 -120.125 L 48.78125 -117.984375 C 43.175781 -117.984375 39.328125 -117.515625 37.234375 -116.578125 C 35.148438 -115.648438 35.097656 -113.148438 37.078125 -109.078125 L 63.109375 -55.53125 C 63.328125 -55.53125 63.460938 -55.53125 63.515625 -55.53125 C 63.578125 -55.53125 63.660156 -55.53125 63.765625 -55.53125 L 88.328125 -109.25 C 89.859375 -112.757812 90.019531 -115.09375 88.8125 -116.25 C 87.601562 -117.40625 84.75 -117.984375 80.25 -117.984375 L 80.25 -120.125 L 103.984375 -120.125 L 103.984375 -117.984375 C 99.804688 -117.984375 97.003906 -117.515625 95.578125 -116.578125 C 94.148438 -115.648438 92.773438 -113.8125 91.453125 -111.0625 L 66.078125 -55.03125 L 65.90625 -10.046875 C 66.125 -6.640625 67.140625 -4.46875 68.953125 -3.53125 C 70.773438 -2.601562 73.550781 -2.140625 77.28125 -2.140625 L 77.28125 0 L 36.421875 0 L 36.421875 -2.140625 C 40.367188 -2.140625 43.273438 -2.6875 45.140625 -3.78125 C 47.015625 -4.882812 47.953125 -7.304688 47.953125 -11.046875 L 47.953125 -46.46875 C 47.398438 -47.5625 46.269531 -49.835938 44.5625 -53.296875 C 42.863281 -56.765625 40.832031 -60.914062 38.46875 -65.75 C 36.113281 -70.582031 33.617188 -75.71875 30.984375 -81.15625 C 28.347656 -86.59375 25.765625 -91.890625 23.234375 -97.046875 C 20.703125 -102.210938 18.503906 -106.71875 16.640625 -110.5625 C 15.210938 -113.3125 13.675781 -115.234375 12.03125 -116.328125 C 10.382812 -117.429688 7.195312 -117.984375 2.46875 -117.984375 Z M 2.46875 -120.125 "/></g></g></g><g fill="#000000" fill-opacity="1"><g transform="translate(74.63609, 125.477045)"><g><path d="M 16.3125 -11.046875 L 16.3125 -109.078125 C 16.3125 -112.929688 15.40625 -115.378906 13.59375 -116.421875 C 11.78125 -117.460938 8.894531 -117.984375 4.9375 -117.984375 L 4.9375 -120.125 L 45.96875 -120.125 L 45.96875 -117.984375 C 42.019531 -117.984375 39.109375 -117.460938 37.234375 -116.421875 C 35.367188 -115.378906 34.4375 -112.929688 34.4375 -109.078125 L 34.4375 -56.03125 L 82.390625 -109.421875 C 85.023438 -112.054688 86.125 -113.976562 85.6875 -115.1875 C 85.25 -116.394531 83.875 -117.160156 81.5625 -117.484375 C 79.257812 -117.816406 76.625 -117.984375 73.65625 -117.984375 L 73.65625 -120.125 L 105.296875 -120.125 L 105.296875 -117.984375 C 102.109375 -117.984375 99.414062 -117.789062 97.21875 -117.40625 C 95.019531 -117.019531 92.988281 -116.25 91.125 -115.09375 C 89.257812 -113.945312 87.226562 -112.109375 85.03125 -109.578125 L 43.015625 -62.453125 C 45.203125 -58.710938 47.804688 -55.910156 50.828125 -54.046875 C 53.847656 -52.179688 56.789062 -51.25 59.65625 -51.25 C 62.832031 -51.25 65.578125 -52.238281 67.890625 -54.21875 L 97.546875 -11.046875 C 100.078125 -7.523438 102.6875 -5.160156 105.375 -3.953125 C 108.070312 -2.742188 110.957031 -2.140625 114.03125 -2.140625 L 114.03125 0 L 96.234375 0 C 91.617188 0 87.769531 -0.957031 84.6875 -2.875 C 81.613281 -4.800781 78.976562 -7.21875 76.78125 -10.125 C 74.59375 -13.039062 72.398438 -15.984375 70.203125 -18.953125 L 41.359375 -60.796875 L 34.4375 -53.0625 L 34.4375 -11.046875 C 34.4375 -7.304688 35.367188 -4.882812 37.234375 -3.78125 C 39.109375 -2.6875 42.019531 -2.140625 45.96875 -2.140625 L 45.96875 0 L 4.9375 0 L 4.9375 -2.140625 C 8.894531 -2.140625 11.78125 -2.6875 13.59375 -3.78125 C 15.40625 -4.882812 16.3125 -7.304688 16.3125 -11.046875 Z M 16.3125 -11.046875 "/></g></g></g></g></g><g clip-path="url(#9dfaee23c5)"><g transform="matrix(1, 0, 0, 1, 65, 178)"><g clip-path="url(#fbd1b811b5)"><g clip-path="url(#4e122790f1)"><path fill="#ffffff" d="M 0.0585938 0.648438 L 247.714844 0.648438 L 247.714844 41.949219 L 0.0585938 41.949219 Z M 0.0585938 0.648438 " fill-opacity="1" fill-rule="nonzero"/></g></g></g></g><path stroke-linecap="butt" transform="matrix(0.75, -0.000000000000000093, 0.000000000000000093, 0.75, 71.260833, 177.897704)" fill="none" stroke-linejoin="miter" d="M 0.00118044 1.000979 L 324.402243 1.000979 " stroke="#000000" stroke-width="2" stroke-opacity="1" stroke-miterlimit="4"/><path stroke-linecap="butt" transform="matrix(0.75, 0, 0, 0.75, 71.260833, 219.200304)" fill="none" stroke-linejoin="miter" d="M 0.00118044 0.998553 L 324.402243 0.998553 " stroke="#000000" stroke-width="2" stroke-opacity="1" stroke-miterlimit="4"/><g transform="matrix(1, 0, 0, 1, 108, 188)"><g clip-path="url(#b6443e8dc2)"><g fill="#000000" fill-opacity="1"><g transform="translate(1.311908, 17.176638)"><g><path d="M 5.953125 -5.640625 L 5.953125 0 L 4.71875 0 L 4.71875 -5.640625 L 0.171875 -11.96875 L 1.765625 -11.96875 L 5.328125 -6.84375 L 8.90625 -11.96875 L 10.484375 -11.96875 Z M 5.953125 -5.640625 "/></g></g></g><g fill="#000000" fill-opacity="1"><g transform="translate(15.552334, 17.176638)"><g><path d="M 11.875 -6.015625 C 11.875 -7.367188 11.390625 -8.523438 10.421875 -9.484375 C 9.460938 -10.453125 8.300781 -10.9375 6.9375 -10.9375 C 5.582031 -10.9375 4.425781 -10.453125 3.46875 -9.484375 C 2.507812 -8.523438 2.03125 -7.367188 2.03125 -6.015625 C 2.03125 -4.660156 2.507812 -3.5 3.46875 -2.53125 C 4.425781 -1.570312 5.582031 -1.09375 6.9375 -1.09375 C 8.300781 -1.09375 9.460938 -1.570312 10.421875 -2.53125 C 11.390625 -3.5 11.875 -4.660156 11.875 -6.015625 Z M 13.09375 -6.015625 C 13.09375 -5.171875 12.9375 -4.375 12.625 -3.625 C 12.300781 -2.875 11.863281 -2.222656 11.3125 -1.671875 C 10.738281 -1.109375 10.078125 -0.671875 9.328125 -0.359375 C 8.578125 -0.0234375 7.78125 0.140625 6.9375 0.140625 C 6.09375 0.140625 5.300781 -0.0234375 4.5625 -0.359375 C 3.8125 -0.671875 3.160156 -1.109375 2.609375 -1.671875 C 2.046875 -2.222656 1.601562 -2.875 1.28125 -3.625 C 0.957031 -4.375 0.796875 -5.171875 0.796875 -6.015625 C 0.796875 -6.867188 0.957031 -7.671875 1.28125 -8.421875 C 1.601562 -9.171875 2.046875 -9.820312 2.609375 -10.375 C 3.160156 -10.925781 3.8125 -11.363281 4.5625 -11.6875 C 5.300781 -12.007812 6.09375 -12.171875 6.9375 -12.171875 C 7.78125 -12.171875 8.578125 -12.007812 9.328125 -11.6875 C 10.078125 -11.363281 10.738281 -10.925781 11.3125 -10.375 C 11.863281 -9.820312 12.300781 -9.171875 12.625 -8.421875 C 12.9375 -7.671875 13.09375 -6.867188 13.09375 -6.015625 Z M 13.09375 -6.015625 "/></g></g></g><g fill="#000000" fill-opacity="1"><g transform="translate(34.527524, 17.176638)"><g><path d="M 9.984375 -3.96875 C 9.984375 -2.675781 9.5625 -1.648438 8.71875 -0.890625 C 7.914062 -0.191406 6.851562 0.15625 5.53125 0.15625 C 4.1875 0.15625 3.117188 -0.191406 2.328125 -0.890625 C 1.484375 -1.648438 1.0625 -2.675781 1.0625 -3.96875 L 1.0625 -11.96875 L 2.296875 -11.96875 L 2.296875 -3.78125 C 2.296875 -2.882812 2.625 -2.191406 3.28125 -1.703125 C 3.84375 -1.285156 4.59375 -1.078125 5.53125 -1.078125 C 7 -1.078125 7.984375 -1.566406 8.484375 -2.546875 C 8.660156 -2.890625 8.75 -3.300781 8.75 -3.78125 L 8.75 -11.96875 L 9.984375 -11.96875 Z M 9.984375 -3.96875 "/></g></g></g><g fill="#000000" fill-opacity="1"><g transform="translate(50.651352, 17.176638)"><g><path d="M 4.65625 -5.65625 C 2.207031 -6.21875 0.984375 -7.257812 0.984375 -8.78125 C 0.984375 -9.914062 1.378906 -10.765625 2.171875 -11.328125 C 2.953125 -11.878906 3.875 -12.15625 4.9375 -12.15625 C 7.269531 -12.15625 8.65625 -11.285156 9.09375 -9.546875 L 7.75 -9.546875 C 7.507812 -10.578125 6.570312 -11.09375 4.9375 -11.09375 C 3.78125 -11.09375 2.972656 -10.753906 2.515625 -10.078125 C 2.335938 -9.816406 2.25 -9.492188 2.25 -9.109375 C 2.25 -8.367188 2.648438 -7.796875 3.453125 -7.390625 C 3.828125 -7.191406 4.625 -6.9375 5.84375 -6.625 C 7.0625 -6.300781 7.945312 -5.945312 8.5 -5.5625 C 9.269531 -5.019531 9.65625 -4.265625 9.65625 -3.296875 C 9.65625 -2.085938 9.175781 -1.171875 8.21875 -0.546875 C 7.425781 -0.0234375 6.441406 0.234375 5.265625 0.234375 C 2.609375 0.234375 1.070312 -0.773438 0.65625 -2.796875 L 2.109375 -2.796875 C 2.335938 -1.523438 3.390625 -0.890625 5.265625 -0.890625 C 6.597656 -0.890625 7.53125 -1.257812 8.0625 -2 C 8.269531 -2.300781 8.375 -2.703125 8.375 -3.203125 C 8.375 -3.691406 8.179688 -4.097656 7.796875 -4.421875 C 7.242188 -4.867188 6.195312 -5.28125 4.65625 -5.65625 Z M 4.65625 -5.65625 "/></g></g></g><g fill="#000000" fill-opacity="1"><g transform="translate(65.842327, 17.176638)"><g><path d="M 9.984375 -3.96875 C 9.984375 -2.675781 9.5625 -1.648438 8.71875 -0.890625 C 7.914062 -0.191406 6.851562 0.15625 5.53125 0.15625 C 4.1875 0.15625 3.117188 -0.191406 2.328125 -0.890625 C 1.484375 -1.648438 1.0625 -2.675781 1.0625 -3.96875 L 1.0625 -11.96875 L 2.296875 -11.96875 L 2.296875 -3.78125 C 2.296875 -2.882812 2.625 -2.191406 3.28125 -1.703125 C 3.84375 -1.285156 4.59375 -1.078125 5.53125 -1.078125 C 7 -1.078125 7.984375 -1.566406 8.484375 -2.546875 C 8.660156 -2.890625 8.75 -3.300781 8.75 -3.78125 L 8.75 -11.96875 L 9.984375 -11.96875 Z M 9.984375 -3.96875 "/></g></g></g><g fill="#000000" fill-opacity="1"><g transform="translate(81.966155, 17.176638)"><g><path d="M 8.4375 -10.828125 L 2.546875 -10.828125 L 2.546875 -6.5625 L 8.265625 -6.5625 L 8.265625 -5.40625 L 2.546875 -5.40625 L 2.546875 0 L 1.328125 0 L 1.328125 -11.96875 L 8.4375 -11.96875 Z M 8.4375 -10.828125 "/></g></g></g><g fill="#000000" fill-opacity="1"><g transform="translate(95.837056, 17.176638)"><g/></g></g><g fill="#000000" fill-opacity="1"><g transform="translate(105.677339, 17.176638)"><g><path d="M 2.546875 0 L 1.328125 0 L 1.328125 -11.96875 L 2.546875 -11.96875 L 2.546875 -6.359375 L 6.578125 -11.96875 L 8.171875 -11.96875 L 3.765625 -5.984375 L 8.171875 0 L 6.578125 0 L 2.546875 -5.625 Z M 2.546875 0 "/></g></g></g><g fill="#000000" fill-opacity="1"><g transform="translate(119.108224, 17.176638)"><g><path d="M 2.546875 0 L 1.328125 0 L 1.328125 -11.96875 L 2.546875 -11.96875 L 2.546875 -6.578125 L 8 -6.578125 L 8 -11.96875 L 9.234375 -11.96875 L 9.234375 0 L 8 0 L 8 -5.359375 L 2.546875 -5.359375 Z M 2.546875 0 "/></g></g></g><g fill="#000000" fill-opacity="1"><g transform="translate(134.73923, 17.176638)"><g><path d="M 3.25 -4.40625 L 7.609375 -4.40625 L 5.4375 -9.921875 Z M 10.6875 0 L 9.34375 0 L 8.0625 -3.25 L 2.796875 -3.25 L 1.515625 0 L 0.171875 0 L 5.4375 -12.796875 Z M 10.6875 0 "/></g></g></g><g fill="#000000" fill-opacity="1"><g transform="translate(150.687048, 17.176638)"><g><path d="M 2.546875 -8.828125 L 2.546875 0 L 1.328125 0 L 1.328125 -12.734375 L 8.046875 -3.171875 L 8.046875 -11.96875 L 9.28125 -11.96875 L 9.28125 0.734375 Z M 2.546875 -8.828125 "/></g></g></g></g></g></svg>